<?xml version="1.0" encoding="UTF-8"?>
<!DOCTYPE svg PUBLIC "-//W3C//DTD SVG 1.1//EN" "http://www.w3.org/Graphics/SVG/1.1/DTD/svg11.dtd">
<svg xmlns="http://www.w3.org/2000/svg" xml:space="preserve" width="300px" height="40px" version="1.1" style="shape-rendering:geometricPrecision; text-rendering:geometricPrecision; image-rendering:optimizeQuality; fill-rule:evenodd; clip-rule:evenodd" xmlns:xlink="http://www.w3.org/1999/xlink">
    <metadata>
        // https://etecdados.github.io
        // etecdados v1.0.0
        // copyright 2019 by etecdados
        // created on 2013/06/24 12:10
        // author fernando silva
        // last update on 2019/09/20
    </metadata>
    <defs>
        <style type="text/css">
            <![CDATA[
                .primary   {fill:#007BFF}
                .secondary {fill:#6C757D}
            ]]>
        </style>
    </defs>
    <path class="primary"   d="M39.79,22.91 A20,20 0 1,0 36.05,31.94 L31.87,27.76 A14.18,14.18 0 1,1 33.88,17.09 L27.06,17.09 A7.64,7.64 0 1,0 27.06,22.91 L39.79,22.91 M20,20 m-2.91,0 a2.91,2.91 0 0,1 5.82,0 a2.91,2.91 0 0,1 -5.82,0 Z"/>
    <path class="primary"   d="M48.36 7.64 L48.36 32.36 73.09 32.36 73.09 26.55 54.18 26.55 54.18 22.91 67.27 22.91 67.27 17.09 54.18 17.09 54.18 13.45 73.09 13.45 73.09 7.64 Z"/>
    <path class="primary"   d="M76.73 7.64 L76.73 13.45 86.18 13.45 86.18 32.36 92.00 32.36 92.00 13.45 101.45 13.45 101.45 7.64 Z"/>
    <path class="primary"   d="M105.09 7.64 L105.09 32.36 129.82 32.36 129.82 26.55 110.91 26.55 110.91 22.91 124.00 22.91 124.00 17.09 110.91 17.09 110.91 13.45 129.82 13.45 129.82 7.64 Z"/>
    <path class="primary"   d="M133.45 7.64 L133.45 32.36 158.18 32.36 158.18 26.55 139.27 26.55 139.27 13.45 158.18 13.45 158.18 7.64 Z"/>
    <path class="secondary" d="M161.82 7.64 L161.82 13.45 180.73 13.45 180.73 26.55 161.82 26.55 161.82 32.36 186.55 32.36 186.55 7.64 Z"/>
    <path class="secondary" d="M190.18 7.64 L190.18 13.45 209.09 13.45 209.09 17.09 190.18 17.09 190.18 32.36 196.00 32.36 196.00 22.91 209.09 22.91 209.09 32.36 214.91 32.36 214.91 7.64 Z"/>
    <path class="secondary" d="M218.55 7.64 L218.55 13.45 237.45 13.45 237.45 26.55 218.55 26.55 218.55 32.36 243.27 32.36 243.27 7.64 Z"/>
    <path class="secondary" d="M246.91 7.64 L246.91 32.36 271.64 32.36 271.64 7.64 Z M252.73 13.45 265.82 13.45 265.82 26.55 252.73 26.55 Z"/>
    <path class="secondary" d="M275.27 7.64 L275.27 22.91 294.18 22.91 294.18 26.55 275.27 26.55 275.27 32.36 300.00 32.36 300.00 17.09 281.09 17.09 281.09 13.45 300.00 13.45 300.00 7.64 Z"/>
</svg>