<?xml version="1.0" encoding="UTF-8"?>
<!DOCTYPE svg PUBLIC "-//W3C//DTD SVG 1.1//EN" "http://www.w3.org/Graphics/SVG/1.1/DTD/svg11.dtd">
<svg xmlns="http://www.w3.org/2000/svg" xml:space="preserve" width="34px" height="34px" version="1.1" style="shape-rendering:geometricPrecision; text-rendering:geometricPrecision; image-rendering:optimizeQuality; fill-rule:evenodd; clip-rule:evenodd" xmlns:xlink="http://www.w3.org/1999/xlink">
    <metadata>
        // https://etecdados.github.io
        // etecdados v1.0.0
        // copyright 2019 by etecdados
        // created on 2013/06/24 12:10
        // author fernando silva
        // last update on 2019/09/26
    </metadata>
    <defs>
        <style type="text/css">
            <![CDATA[
                .primary   {fill:#C8102E}
                .secondary {fill:#012169}
            ]]>
        </style>
    </defs>
    <circle fill="#FFFFFF" cx="17" cy="17" r="17" />
    <path   class="primary"   d="M19.22,0.14  A17,17 0 0,0 14.78,0.14  L14.78,14.78 0.14,14.78 A17,17 0 0,0 0.14,19.22 L14.78,19.22 14.78,33.86 A17,17 0 0,0 19.22,33.86 L19.22,19.22 33.86,19.22 A17,17 0 0,0 33.86,14.78 L19.22,14.78 Z"/>
    <path   class="secondary" d="M12.57,0.59  A17,17 0 0,0 6.65,3.51   L12.57,9.43 Z"/>
    <path   class="primary"   d="M4.98,4.98   A17,17 0 0,0 3.98,6.07   L10.47,12.57 12.57,12.57 Z"/>
    <path   class="secondary" d="M3.51,6.65   A17,17 0 0,0 0.59,12.57  L9.43,12.57 Z"/>
    <path   class="secondary" d="M0.59,21.43  A17,17 0 0,0 3.51,27.35  L9.43,21.43 Z"/>
    <path   class="primary"   d="M4.98,29.02  A17,17 0 0,0 6.07,30.02  L12.57,23.53 12.57,21.43 Z"/>
    <path   class="secondary" d="M6.65,30.49  A17,17 0 0,0 12.57,33.41 L12.57,24.57 Z"/>
    <path   class="secondary" d="M21.43,33.41 A17,17 0 0,0 27.35,30.49 L21.43,24.57 Z"/>
    <path   class="primary"   d="M29.02,29.02 A17,17 0 0,0 30.02,27.93 L23.53,21.43 21.43,21.43 Z"/>
    <path   class="secondary" d="M30.49,27.35 A17,17 0 0,0 33.41,21.43 L24.57,21.43 Z"/>
    <path   class="secondary" d="M33.41,12.57 A17,17 0 0,0 30.49,6.65  L24.57,12.57 Z"/>
    <path   class="primary"   d="M27.93,3.98  A17,17 0 0,0 29.02,4.98  L21.43,12.57 21.43,10.47 Z"/>
    <path   class="secondary" d="M27.35,3.51  A17,17 0 0,0 21.43,0.59  L21.43,9.43 Z"/>
</svg>